<mxfile host="app.diagrams.net" agent="Mozilla/5.0 (Windows NT 10.0; Win64; x64) AppleWebKit/537.36 (KHTML, like Gecko) Chrome/131.0.0.0 Safari/537.36" version="25.0.3">
  <diagram name="Page-1" id="lCKK0SYmYycJSSmMypmF">
    <mxGraphModel dx="2403" dy="1258" grid="1" gridSize="10" guides="1" tooltips="1" connect="1" arrows="1" fold="1" page="1" pageScale="1" pageWidth="850" pageHeight="1100" math="0" shadow="0">
      <root>
        <mxCell id="0" />
        <mxCell id="1" parent="0" />
        <mxCell id="tOVqJOseBS--4NqwXfb2-4" style="edgeStyle=orthogonalEdgeStyle;rounded=0;orthogonalLoop=1;jettySize=auto;html=1;exitX=0.5;exitY=1;exitDx=0;exitDy=0;entryX=0.5;entryY=0;entryDx=0;entryDy=0;" parent="1" source="tOVqJOseBS--4NqwXfb2-1" target="tOVqJOseBS--4NqwXfb2-3" edge="1">
          <mxGeometry relative="1" as="geometry" />
        </mxCell>
        <mxCell id="tOVqJOseBS--4NqwXfb2-1" value="&lt;font style=&quot;font-size: 16px;&quot;&gt;Begin rover listener thread&lt;/font&gt;" style="rounded=0;whiteSpace=wrap;html=1;" parent="1" vertex="1">
          <mxGeometry x="240" y="170" width="120" height="60" as="geometry" />
        </mxCell>
        <mxCell id="tOVqJOseBS--4NqwXfb2-5" style="edgeStyle=orthogonalEdgeStyle;rounded=0;orthogonalLoop=1;jettySize=auto;html=1;exitX=0.5;exitY=1;exitDx=0;exitDy=0;entryX=0.5;entryY=0;entryDx=0;entryDy=0;" parent="1" source="tOVqJOseBS--4NqwXfb2-2" target="tOVqJOseBS--4NqwXfb2-1" edge="1">
          <mxGeometry relative="1" as="geometry" />
        </mxCell>
        <mxCell id="tOVqJOseBS--4NqwXfb2-2" value="&lt;font style=&quot;font-size: 20px;&quot;&gt;START&lt;/font&gt;" style="ellipse;whiteSpace=wrap;html=1;" parent="1" vertex="1">
          <mxGeometry x="240" y="70" width="120" height="80" as="geometry" />
        </mxCell>
        <mxCell id="tOVqJOseBS--4NqwXfb2-7" style="edgeStyle=orthogonalEdgeStyle;rounded=0;orthogonalLoop=1;jettySize=auto;html=1;exitX=0.5;exitY=1;exitDx=0;exitDy=0;entryX=0.5;entryY=0;entryDx=0;entryDy=0;" parent="1" source="tOVqJOseBS--4NqwXfb2-3" target="tOVqJOseBS--4NqwXfb2-6" edge="1">
          <mxGeometry relative="1" as="geometry" />
        </mxCell>
        <mxCell id="tOVqJOseBS--4NqwXfb2-3" value="&lt;span style=&quot;font-size: 16px;&quot;&gt;Begin controller listener thread&lt;/span&gt;" style="rounded=0;whiteSpace=wrap;html=1;" parent="1" vertex="1">
          <mxGeometry x="240" y="250" width="120" height="60" as="geometry" />
        </mxCell>
        <mxCell id="tOVqJOseBS--4NqwXfb2-9" style="edgeStyle=orthogonalEdgeStyle;rounded=0;orthogonalLoop=1;jettySize=auto;html=1;exitX=0.5;exitY=1;exitDx=0;exitDy=0;entryX=0.5;entryY=0;entryDx=0;entryDy=0;" parent="1" source="tOVqJOseBS--4NqwXfb2-6" edge="1">
          <mxGeometry relative="1" as="geometry">
            <mxPoint x="300" y="410" as="targetPoint" />
          </mxGeometry>
        </mxCell>
        <mxCell id="tOVqJOseBS--4NqwXfb2-6" value="&lt;font style=&quot;font-size: 16px;&quot;&gt;Start GStream relayer program&lt;/font&gt;" style="rounded=0;whiteSpace=wrap;html=1;" parent="1" vertex="1">
          <mxGeometry x="240" y="330" width="120" height="60" as="geometry" />
        </mxCell>
        <mxCell id="tOVqJOseBS--4NqwXfb2-24" value="&lt;font style=&quot;font-size: 16px;&quot;&gt;&amp;lt; Rover &amp;gt;&lt;/font&gt;" style="swimlane;whiteSpace=wrap;html=1;" parent="1" vertex="1">
          <mxGeometry x="450" y="190" width="140" height="510" as="geometry" />
        </mxCell>
        <mxCell id="T-RJG8IrfPC4kw9vAlBB-33" value="&lt;font style=&quot;font-size: 16px;&quot;&gt;Handle heartbeat&lt;/font&gt;&lt;div&gt;&lt;font style=&quot;font-size: 16px;&quot;&gt;and change of&lt;/font&gt;&lt;/div&gt;&lt;div&gt;&lt;font style=&quot;font-size: 16px;&quot;&gt;address, forward&lt;/font&gt;&lt;/div&gt;&lt;div&gt;&lt;font style=&quot;font-size: 16px;&quot;&gt;control, handle&lt;/font&gt;&lt;/div&gt;&lt;div&gt;&lt;font style=&quot;font-size: 16px;&quot;&gt;shutdown&lt;/font&gt;&lt;/div&gt;" style="text;html=1;align=center;verticalAlign=middle;whiteSpace=wrap;rounded=0;" vertex="1" parent="tOVqJOseBS--4NqwXfb2-24">
          <mxGeometry y="247.5" width="140" height="70" as="geometry" />
        </mxCell>
        <mxCell id="tOVqJOseBS--4NqwXfb2-31" value="&lt;font style=&quot;font-size: 16px;&quot;&gt;&amp;lt; Controller &amp;gt;&lt;/font&gt;" style="swimlane;whiteSpace=wrap;html=1;" parent="1" vertex="1">
          <mxGeometry x="610" y="270" width="160" height="430" as="geometry" />
        </mxCell>
        <mxCell id="tOVqJOseBS--4NqwXfb2-37" value="&lt;span style=&quot;font-size: 16px;&quot;&gt;Handle heartbeat&lt;/span&gt;&lt;div&gt;&lt;span style=&quot;font-size: 16px;&quot;&gt;and change of&lt;/span&gt;&lt;/div&gt;&lt;div&gt;&lt;span style=&quot;font-size: 16px;&quot;&gt;address, handle&lt;/span&gt;&lt;/div&gt;&lt;div&gt;&lt;span style=&quot;font-size: 16px;&quot;&gt;shutdown&lt;/span&gt;&lt;/div&gt;" style="text;html=1;align=center;verticalAlign=middle;resizable=0;points=[];autosize=1;strokeColor=none;fillColor=none;" parent="tOVqJOseBS--4NqwXfb2-31" vertex="1">
          <mxGeometry x="5" y="157.5" width="150" height="90" as="geometry" />
        </mxCell>
        <mxCell id="tOVqJOseBS--4NqwXfb2-39" value="&lt;font style=&quot;font-size: 16px;&quot;&gt;&amp;lt; GStream &amp;gt;&lt;/font&gt;" style="swimlane;whiteSpace=wrap;html=1;" parent="1" vertex="1">
          <mxGeometry x="790" y="350" width="160" height="290" as="geometry" />
        </mxCell>
        <mxCell id="tOVqJOseBS--4NqwXfb2-40" value="&lt;span style=&quot;font-size: 16px;&quot;&gt;Repackage received&lt;/span&gt;&lt;div&gt;&lt;span style=&quot;font-size: 16px;&quot;&gt;video data from rover&lt;/span&gt;&lt;/div&gt;&lt;div&gt;&lt;span style=&quot;font-size: 16px;&quot;&gt;and send to controller&lt;/span&gt;&lt;/div&gt;" style="text;html=1;align=center;verticalAlign=middle;resizable=0;points=[];autosize=1;strokeColor=none;fillColor=none;" parent="tOVqJOseBS--4NqwXfb2-39" vertex="1">
          <mxGeometry x="-10" y="87.5" width="180" height="70" as="geometry" />
        </mxCell>
        <mxCell id="tOVqJOseBS--4NqwXfb2-47" value="&lt;font style=&quot;font-size: 16px;&quot;&gt;&amp;lt; Main &amp;gt;&lt;/font&gt;" style="swimlane;whiteSpace=wrap;html=1;" parent="1" vertex="1">
          <mxGeometry x="110" y="30" width="320" height="670" as="geometry" />
        </mxCell>
        <mxCell id="T-RJG8IrfPC4kw9vAlBB-34" value="&lt;font style=&quot;font-size: 16px;&quot;&gt;Yes&lt;/font&gt;" style="edgeStyle=orthogonalEdgeStyle;rounded=0;orthogonalLoop=1;jettySize=auto;html=1;exitX=0.5;exitY=1;exitDx=0;exitDy=0;entryX=0.5;entryY=0;entryDx=0;entryDy=0;" edge="1" parent="tOVqJOseBS--4NqwXfb2-47" source="T-RJG8IrfPC4kw9vAlBB-22" target="T-RJG8IrfPC4kw9vAlBB-26">
          <mxGeometry x="-0.3636" y="-1" relative="1" as="geometry">
            <mxPoint as="offset" />
          </mxGeometry>
        </mxCell>
        <mxCell id="T-RJG8IrfPC4kw9vAlBB-35" value="&lt;font style=&quot;font-size: 16px;&quot;&gt;No&lt;/font&gt;" style="edgeStyle=orthogonalEdgeStyle;rounded=0;orthogonalLoop=1;jettySize=auto;html=1;exitX=0;exitY=0.5;exitDx=0;exitDy=0;entryX=0;entryY=0;entryDx=0;entryDy=0;" edge="1" parent="tOVqJOseBS--4NqwXfb2-47" source="T-RJG8IrfPC4kw9vAlBB-22" target="T-RJG8IrfPC4kw9vAlBB-22">
          <mxGeometry x="-0.856" y="-3" relative="1" as="geometry">
            <mxPoint x="110" y="390" as="targetPoint" />
            <Array as="points">
              <mxPoint x="80" y="444" />
              <mxPoint x="80" y="390" />
              <mxPoint x="152" y="390" />
            </Array>
            <mxPoint x="-1" as="offset" />
          </mxGeometry>
        </mxCell>
        <mxCell id="T-RJG8IrfPC4kw9vAlBB-22" value="&lt;font style=&quot;font-size: 16px;&quot;&gt;Did the&lt;/font&gt;&lt;div&gt;&lt;font style=&quot;font-size: 16px;&quot;&gt;address&amp;nbsp;&lt;/font&gt;&lt;span style=&quot;font-size: 16px; background-color: initial;&quot;&gt;for the&lt;/span&gt;&lt;div&gt;&lt;font style=&quot;font-size: 16px;&quot;&gt;controller&lt;/font&gt;&lt;/div&gt;&lt;div&gt;&lt;font style=&quot;font-size: 16px;&quot;&gt;change?&lt;/font&gt;&lt;/div&gt;&lt;/div&gt;" style="rhombus;whiteSpace=wrap;html=1;" vertex="1" parent="tOVqJOseBS--4NqwXfb2-47">
          <mxGeometry x="113" y="381" width="155" height="125" as="geometry" />
        </mxCell>
        <mxCell id="T-RJG8IrfPC4kw9vAlBB-26" value="&lt;font style=&quot;font-size: 16px;&quot;&gt;Stop GStream relayer program&lt;/font&gt;" style="rounded=0;whiteSpace=wrap;html=1;" vertex="1" parent="tOVqJOseBS--4NqwXfb2-47">
          <mxGeometry x="130.5" y="550" width="120" height="60" as="geometry" />
        </mxCell>
        <mxCell id="tOVqJOseBS--4NqwXfb2-48" style="edgeStyle=orthogonalEdgeStyle;rounded=0;orthogonalLoop=1;jettySize=auto;html=1;exitX=1;exitY=0.5;exitDx=0;exitDy=0;" parent="1" source="tOVqJOseBS--4NqwXfb2-1" edge="1">
          <mxGeometry relative="1" as="geometry">
            <mxPoint x="450" y="200" as="targetPoint" />
          </mxGeometry>
        </mxCell>
        <mxCell id="ZR7N2brsCp0cxNk4SphN-1" value="&lt;b&gt;&lt;font style=&quot;font-size: 45px;&quot;&gt;SERVER TASKS&lt;/font&gt;&lt;/b&gt;" style="text;html=1;align=right;verticalAlign=middle;whiteSpace=wrap;rounded=0;" parent="1" vertex="1">
          <mxGeometry x="462.5" y="30" width="487.5" height="30" as="geometry" />
        </mxCell>
        <mxCell id="T-RJG8IrfPC4kw9vAlBB-27" style="edgeStyle=orthogonalEdgeStyle;rounded=0;orthogonalLoop=1;jettySize=auto;html=1;exitX=1;exitY=0.5;exitDx=0;exitDy=0;entryX=0;entryY=0.034;entryDx=0;entryDy=0;entryPerimeter=0;" edge="1" parent="1" source="tOVqJOseBS--4NqwXfb2-6" target="tOVqJOseBS--4NqwXfb2-39">
          <mxGeometry relative="1" as="geometry" />
        </mxCell>
        <mxCell id="T-RJG8IrfPC4kw9vAlBB-31" style="edgeStyle=orthogonalEdgeStyle;rounded=0;orthogonalLoop=1;jettySize=auto;html=1;exitX=1;exitY=0.5;exitDx=0;exitDy=0;entryX=0.006;entryY=0.024;entryDx=0;entryDy=0;entryPerimeter=0;" edge="1" parent="1" source="tOVqJOseBS--4NqwXfb2-3" target="tOVqJOseBS--4NqwXfb2-31">
          <mxGeometry relative="1" as="geometry" />
        </mxCell>
        <mxCell id="T-RJG8IrfPC4kw9vAlBB-36" style="edgeStyle=orthogonalEdgeStyle;rounded=0;orthogonalLoop=1;jettySize=auto;html=1;exitX=0.5;exitY=1;exitDx=0;exitDy=0;entryX=0;entryY=0.5;entryDx=0;entryDy=0;" edge="1" parent="1" source="T-RJG8IrfPC4kw9vAlBB-26" target="tOVqJOseBS--4NqwXfb2-6">
          <mxGeometry relative="1" as="geometry">
            <Array as="points">
              <mxPoint x="301" y="660" />
              <mxPoint x="160" y="660" />
              <mxPoint x="160" y="360" />
            </Array>
          </mxGeometry>
        </mxCell>
      </root>
    </mxGraphModel>
  </diagram>
</mxfile>
